<?xml version="1.0" encoding="UTF-8"?>
<svg id="Layer_1" xmlns="http://www.w3.org/2000/svg" xmlns:xlink="http://www.w3.org/1999/xlink" version="1.1" viewBox="0 0 1024 500">
  <!-- Generator: Adobe Illustrator 30.1.0, SVG Export Plug-In . SVG Version: 2.1.1 Build 136)  -->
  <defs>
    <style>
      .st0 {
        fill: url(#linear-gradient);
      }

      .st1 {
        fill: #f0f6ff;
      }
    </style>
    <linearGradient id="linear-gradient" x1="0" y1="249.89" x2="1024" y2="249.89" gradientTransform="translate(0 499.89) scale(1 -1)" gradientUnits="userSpaceOnUse">
      <stop offset="0" stop-color="#3670f2"/>
      <stop offset="1" stop-color="#25d366"/>
    </linearGradient>
  </defs>
  <rect class="st0" y="0" width="1024" height="500"/>
  <g>
    <path class="st1" d="M342.44,87.77h0c20.27,0,36.7,16.43,36.7,36.7v59.46c0,20.27-16.43,36.7-36.7,36.7h0c-20.27,0-36.7-16.43-36.7-36.7v-59.46c0-20.27,16.43-36.7,36.7-36.7Z"/>
    <path class="st1" d="M394.53,168.53c-3.27,0-5.92,2.66-5.92,5.92v9.47c0,25.45-20.7,46.17-46.17,46.17s-46.17-20.7-46.17-46.17v-9.47c0-3.27-2.66-5.92-5.92-5.92s-5.92,2.66-5.92,5.92v9.47c0,29.98,22.87,54.72,52.08,57.71v22.98h-15.32c-3.27,0-5.92,2.66-5.92,5.92v5.92h54.32v-5.92c0-3.27-2.66-5.92-5.92-5.92h-15.32v-22.98c29.21-2.97,52.08-27.72,52.08-57.71v-9.47c0-3.27-2.66-5.92-5.92-5.92h.04Z"/>
    <path class="st1" d="M534.5,170.55l-45.84-32.27c-2.55-1.79-5.35-2.59-8.08-2.59-7.33,0-14.17,5.81-14.17,14.16v64.51c0,8.33,6.84,14.16,14.17,14.16,2.74,0,5.54-.81,8.08-2.59l45.84-32.27c7.99-5.63,7.99-17.47,0-23.1h0ZM528.92,185.72l-45.84,32.27c-.78.55-1.63.83-2.51.83-1.86,0-4.48-1.38-4.48-4.47v-64.51c0-3.07,2.62-4.47,4.48-4.47h0c.88,0,1.71.28,2.51.83l45.84,32.27c1.64,1.15,1.88,2.77,1.88,3.62s-.24,2.47-1.88,3.62h0Z"/>
    <path class="st1" d="M736.76,86.48c-.77-.77-1.84-1.21-2.92-1.21h-138.78c-1.09,0-2.15.44-2.92,1.21s-1.21,1.84-1.21,2.92v185.4c0,1.09.44,2.15,1.21,2.92s1.84,1.21,2.92,1.21h113.5c1.09,0,2.14-.44,2.91-1.2l12.75-12.67h.01l12.53-12.6c.77-.77,1.21-1.84,1.21-2.91V89.41c0-1.09-.44-2.15-1.21-2.92ZM707.52,270.82v-21.26h22.03l-22.03,21.26ZM729.69,128.65v112.63h-26.31c-1.09,0-2.15.44-2.92,1.21s-1.21,1.84-1.21,2.92v25.24h-100.06V93.53h130.49v35.12h.01Z"/>
    <rect class="st1" x="606.31" y="114.85" width="115.93" height="11.99"/>
    <rect class="st1" x="606.31" y="142" width="115.93" height="11.99"/>
    <rect class="st1" x="606.31" y="172.26" width="115.93" height="11.99"/>
    <rect class="st1" x="606.31" y="200.32" width="115.93" height="11.99"/>
    <rect class="st1" x="606.31" y="228.39" width="86.5" height="11.99"/>
  </g>
  <path class="st1" d="M408.04,350.08l-8.11-5.69c-.45-.31-.94-.45-1.43-.45-1.29,0-2.5,1.02-2.5,2.5v11.4c0,1.47,1.21,2.5,2.5,2.5.49,0,.98-.14,1.43-.45l8.11-5.69c1.41-1,1.41-3.09,0-4.07v-.04ZM698.9,350.08l-8.11-5.69c-.45-.31-.94-.45-1.43-.45-1.29,0-2.5,1.02-2.5,2.5v11.4c0,1.47,1.21,2.5,2.5,2.5.49,0,.98-.14,1.43-.45l8.11-5.69c1.41-1,1.41-3.09,0-4.07v-.04ZM288.39,418.92h-15.86l-19.98-68.59h13.12l14.84,57.19,15.27-57.19h12.61l-19.98,68.59h-.02ZM340.43,419.78c-7.33,0-13-1.7-17.07-5.1s-6.08-8.19-6.08-14.37v-13.9c0-6.28,2.05-11.16,6.14-14.62s9.78-5.18,17.11-5.18,13,1.76,17.01,5.28,6.04,8.41,6.04,14.7v13.9c0,6.12-2.03,10.87-6.08,14.23-4.05,3.38-9.74,5.06-17.07,5.06ZM340.43,409.92c3.54,0,6.14-.82,7.8-2.44,1.66-1.64,2.48-4.16,2.48-7.59v-13.12c0-3.54-.84-6.14-2.48-7.8-1.66-1.66-4.26-2.48-7.8-2.48s-6.14.84-7.8,2.48c-1.66,1.66-2.48,4.24-2.48,7.72v12.96c0,3.54.82,6.14,2.48,7.8,1.66,1.66,4.26,2.48,7.8,2.48h0ZM377.72,418.92v-9.87h16.29v-31.73h-16.29v-9.87h29.15v41.59h16.29v9.87h-45.44ZM455.36,419.78c-7.88,0-13.9-1.7-18.01-5.1s-6.18-8.33-6.18-14.8v-13.37c0-6.47,2.07-11.38,6.18-14.8,4.11-3.4,10.09-5.1,17.93-5.1,7.27,0,12.71,1.6,16.33,4.81,3.62,3.19,5.75,7.78,6.39,13.71l-12.42.94c-.23-3.44-1.19-5.9-2.87-7.37-1.68-1.49-4.28-2.23-7.76-2.23-3.77,0-6.53.84-8.27,2.48-1.74,1.66-2.62,4.38-2.62,8.15v12.34c0,3.66.88,6.32,2.66,7.98s4.56,2.48,8.41,2.48c3.44,0,5.98-.61,7.64-1.84s2.6-3.23,2.82-6.04l12.42.94c-.41,5.42-2.33,9.6-5.79,12.49-3.46,2.89-9.07,4.34-16.85,4.34l-.02-.02ZM538.2,407.17c-1.88,4.63-4.52,7.88-7.94,9.78-3.4,1.88-8.62,2.82-15.66,2.82s-12.61-1.64-16.93-4.93c-4.32-3.3-6.47-8.19-6.47-14.7v-13.71c0-6.41,2.11-11.3,6.3-14.7s9.85-5.1,16.93-5.1,12.77,1.72,16.89,5.14,6.18,8.43,6.18,15v9.01h-33.45v4.97c0,3.38.86,5.9,2.58,7.55s4.42,2.48,8.15,2.48c3.25,0,5.81-.49,7.68-1.45s3.4-2.72,4.59-5.24l11.16,3.09v-.02ZM504.06,385.56v2.66h20.57v-1.88c0-3.95-.8-6.75-2.39-8.45-1.6-1.68-4.24-2.54-7.88-2.54s-6.28.8-7.88,2.39-2.39,4.2-2.39,7.8l-.02.02ZM574.55,419.6c-5.32,0-10.13-.76-14.45-2.27s-8.19-3.85-11.63-6.98l4.97-9.35c2.91,2.64,6.08,4.67,9.52,6.14s7.37,2.19,11.83,2.19c3.77,0,6.69-.82,8.74-2.44,2.05-1.64,3.09-3.81,3.09-6.55,0-2.91-1.02-5.06-3.09-6.43s-5.9-2.8-11.48-4.28c-8.06-2.07-13.65-4.56-16.76-7.51s-4.67-7.16-4.67-12.65c0-5.94,2.01-10.73,6.04-14.33,4.03-3.6,9.62-5.4,16.76-5.4,4.46,0,8.82.78,13.08,2.35,4.26,1.58,7.82,3.77,10.66,6.63l-4.46,8.99c-2.87-2.48-5.92-4.36-9.17-5.69s-6.61-1.99-10.03-1.99c-3.15,0-5.61.63-7.37,1.9-1.78,1.27-2.66,3.3-2.66,6.12,0,2.58,1,4.63,3.01,6.12,2.01,1.49,6.06,3.01,12.18,4.56,7.84,1.94,13.26,4.42,16.29,7.41,3.03,3.01,4.54,7.33,4.54,13,0,6.57-2.35,11.63-7.08,15.19-4.71,3.54-10.68,5.32-17.87,5.32v-.06ZM626.69,396.71v22.21h-12.85v-68.59h12.85v37.21h3.77l14.84-20.06h13.98l-18.26,23.5,18.01,27.96h-13.98l-14.57-22.21h-3.77l-.02-.02ZM667.61,418.92v-9.87h16.29v-31.73h-16.29v-9.87h29.15v41.59h16.29v9.87h-45.44,0ZM749.75,419.6c-1.94,0-3.95-.18-6-.55-2.07-.37-3.97-.92-5.75-1.68v18.69h-12.85v-68.59h12.85v9.01h2.58c1.37-3.03,3.44-5.42,6.18-7.21s5.77-2.66,9.09-2.66c4.81,0,8.6,1.64,11.4,4.93,2.8,3.3,4.2,7.76,4.2,13.43v15.19c0,5.94-1.94,10.66-5.83,14.19s-9.17,5.28-15.86,5.28v-.02ZM748.13,409.73c3.6,0,6.24-.78,7.92-2.31s2.54-4.05,2.54-7.53v-13.35c0-3.25-.68-5.65-2.07-7.18-1.37-1.54-3.4-2.31-6.08-2.31-2.23,0-4.34.53-6.3,1.62s-4.01,2.76-6.14,5.04v23.25c1.6.92,3.17,1.6,4.71,2.05s3.34.68,5.4.68l.02.06Z"/>
</svg>