<?xml version="1.0" encoding="UTF-8"?>
<svg id="Layer_1" xmlns="http://www.w3.org/2000/svg" xmlns:xlink="http://www.w3.org/1999/xlink" version="1.1" viewBox="0 0 512 512">
  <!-- Generator: Adobe Illustrator 30.1.0, SVG Export Plug-In . SVG Version: 2.1.1 Build 136)  -->
  <defs>
    <style>
      .st0 {
        fill: url(#linear-gradient1);
      }

      .st1 {
        fill: url(#linear-gradient);
      }

      .st2 {
        fill: #f0f6ff;
      }

      .st3 {
        fill: none;
        stroke: #f0f6ff;
        stroke-miterlimit: 10;
      }

      .st4 {
        display: none;
      }
    </style>
    <linearGradient id="linear-gradient" x1="-.88" y1="-74.11" x2="511.12" y2="-74.11" gradientTransform="translate(0 181.89) scale(1 -1)" gradientUnits="userSpaceOnUse">
      <stop offset=".12" stop-color="#3670f2"/>
      <stop offset=".88" stop-color="#607eff"/>
    </linearGradient>
    <linearGradient id="linear-gradient1" x1="66.38" y1="-244.19" x2="197.58" y2="-131.74" gradientTransform="translate(0 181.89) scale(1 -1)" gradientUnits="userSpaceOnUse">
      <stop offset=".29" stop-color="#3670f2"/>
      <stop offset=".77" stop-color="#25d366"/>
    </linearGradient>
  </defs>
  <g id="Layer_11">
    <rect class="st1" x="-.88" y="0" width="512" height="512"/>
  </g>
  <g class="st4">
    <path class="st2" d="M263.57,219.27l-72.99-51.21c-4.05-2.79-8.46-4.05-12.87-4.05-11.61,0-22.5,9.18-22.5,22.5v102.6c0,13.23,10.89,22.5,22.5,22.5,4.41,0,8.82-1.26,12.87-4.05l72.99-51.21c12.69-9,12.69-27.81,0-36.63v-.36h0v-.09Z"/>
    <path class="st2" d="M369.52,219.27l-72.99-51.21c-4.05-2.79-8.46-4.05-12.87-4.05-11.61,0-22.5,9.18-22.5,22.5v102.6c0,13.23,10.89,22.5,22.5,22.5,4.41,0,8.82-1.26,12.87-4.05l72.99-51.21c12.69-9,12.69-27.81,0-36.63v-.36h0v-.09Z"/>
  </g>
  <path class="st0" d="M400.68,233.52h0v-.53c-10.09-4.97-89.65-68.59-100.58-64.73-12.13-.47-20.18,9-27.85,16.95-8.78,8.71-17.51,17.5-26.29,26.22l-54.86-38.5c-16.14-11.33-32.29-.82-42.93,12.21-28.76,28.7-57.47,57.45-86.15,86.22-47.55,47.53-95.07,95.1-142.58,142.69-8.27,8.61-18.71,15.53-18.41,29.33v120.19c0,15.5,12.76,26.36,26.36,26.36,9.89,4.46,88.69-58.47,97.76-62.75v36.4c0,21.77,24.73,33.51,41.44,21.62,10.48-8.06,92.49-62.45,98.07-72.07,34.27-34.25,68.54-68.5,102.77-102.77,30.98-30.93,61.93-61.88,92.85-92.85,11.08-11.04,22.14-22.09,33.16-33.16,16.81-13.21,28.23-35.03,7.3-50.9l-.06.05v.02Z"/>
  <path class="st2" d="M400.68,233.52v-.53l-85.51-59.99c-4.74-3.27-9.91-4.74-15.07-4.74-13.6,0-26.36,10.76-26.36,26.36v36.4l-82.68-58.01c-4.74-3.27-9.91-4.74-15.07-4.74-13.6,0-26.36,10.76-26.36,26.36v120.19c0,15.5,12.76,26.36,26.36,26.36,5.16,0,10.34-1.48,15.07-4.74l82.68-58.01v36.4c0,15.5,12.76,26.36,26.36,26.36,5.16,0,10.34-1.48,15.07-4.74l85.51-59.99c14.86-10.55,14.86-32.58,0-42.91h0v-.04h0Z"/>
  <g id="Layer_3" class="st4">
    <circle class="st3" cx="257.12" cy="256" r="192"/>
  </g>
</svg>